<svg width="14" height="14" fill="none" xmlns="http://www.w3.org/2000/svg"><g clip-path="url(#clip0_10_23)"><path d="M12.6 0H1.4C.63 0 0 .63 0 1.4v11.2c0 .77.63 1.4 1.4 1.4h11.2c.77 0 1.4-.63 1.4-1.4V1.4c0-.77-.63-1.4-1.4-1.4zM4.2 11.9H2.1V5.6h2.1v6.3zM3.15 4.41c-.7 0-1.26-.56-1.26-1.26s.56-1.26 1.26-1.26 1.26.56 1.26 1.26-.56 1.26-1.26 1.26zm8.75 7.49H9.8V8.19c0-.56-.49-1.05-1.05-1.05S7.7 7.63 7.7 8.19v3.71H5.6V5.6h2.1v.84c.35-.56 1.12-.98 1.75-.98 1.33 0 2.45 1.12 2.45 2.45v3.99z" fill="#fff"/></g><defs><clipPath id="clip0_10_23"><path fill="#fff" d="M0 0h14v14H0z"/></clipPath></defs></svg>